# xmcd
#
# Track frame offsets:
#	180
#	19712
#	35895
#	48613
#	65783
#
# Disc length: 1058 seconds
#
# Revision: 0
# Processed by: cddbd v1.5.2PL0 Copyright (c) Steve Scherf et al.
# Submitted via: EasyCDDAExtractor 2011.3.0.0
#
DISCID=47042005
DTITLE=Melbra Rai mit Chor - Deutsche Gospel Weihnacht
DYEAR=1900
DGENRE=vocal
TTITLE0=Stille Nacht, heilige Nacht
TTITLE1=Sing Halleluja
TTITLE2=O Du Fröhliche
TTITLE3=Frohe Weihnacht
TTITLE4=Weihnachten Zuhaus
EXTD=
EXTT0=
EXTT1=
EXTT2=
EXTT3=
EXTT4=
PLAYORDER=
